<?xml version="1.0" encoding="UTF-8"?>
<svg version="1.1" xmlns="http://www.w3.org/2000/svg" width="512" height="512">
<path d="M0 0 C0.68771484 0.04253906 1.37542969 0.08507813 2.08398438 0.12890625 C39.93578227 2.69848 73.76951599 17.71897499 101 44 C101.85207031 44.78890625 102.70414062 45.5778125 103.58203125 46.390625 C114.6693011 56.93662656 122.83562825 69.57273375 130 83 C130.53238281 83.96035156 131.06476563 84.92070313 131.61328125 85.91015625 C150.01914496 120.48654621 151.68885093 163.61020149 140.44140625 200.62109375 C132.88695942 224.17689843 120.12219402 244.27406148 103 262 C102.13761719 262.92554688 101.27523438 263.85109375 100.38671875 264.8046875 C74.0155433 292.3869836 36.05308754 306.97456883 -1.703125 308.22265625 C-43.54853744 309.09429491 -82.60917117 294.97937122 -113.1484375 266.1328125 C-119.09816186 260.37167438 -124.72374539 254.77091218 -129.25 247.8125 C-133.31458892 241.8630138 -138.20579441 239.91764934 -145 238 C-145.87527344 237.74605469 -146.75054687 237.49210938 -147.65234375 237.23046875 C-162.41794413 233.78886265 -178.04695848 237.02743363 -191.1875 244.125 C-204.67746726 252.53179119 -213.58546305 264.88472472 -217.5 280.1875 C-221.10290023 295.93780179 -218.48654724 311.4112368 -210.10253906 325.31835938 C-201.10807994 339.03710039 -187.89635287 347.25840946 -172 351 C-156.5402692 354.04125852 -141.18290474 350.40026953 -128 342 C-115.61119016 332.90128537 -106.73973011 320.3299761 -104.31640625 304.97265625 C-103.79603582 301.32366001 -103.3760782 297.66676242 -103 294 C-99.11983203 295.38197763 -95.71931619 297.26092896 -92.17797852 299.32543945 C-66.38893002 314.28404304 -39.40255102 320.20384825 -10 323 C-14.7687731 349.39557745 -26.47769885 373.66902398 -44 394 C-44.82113281 394.95519531 -45.64226562 395.91039062 -46.48828125 396.89453125 C-66.38596631 419.55110828 -92.88548118 435.25736339 -122 443 C-122.78262207 443.20882813 -123.56524414 443.41765625 -124.37158203 443.6328125 C-148.31745953 449.67786725 -176.17358913 449.38622124 -200 443 C-200.85239258 442.7745752 -201.70478516 442.54915039 -202.58300781 442.31689453 C-221.87433026 437.00547061 -240.66877582 427.93991078 -256 415 C-257.05849874 414.15059979 -258.11846246 413.30302281 -259.1796875 412.45703125 C-289.78689238 387.73183091 -309.08897981 352.00263712 -314 313 C-314.16628906 311.72576172 -314.16628906 311.72576172 -314.3359375 310.42578125 C-318.64783368 271.44390899 -307.60024644 230.51557665 -283.29736328 199.59228516 C-279.42702684 194.84212816 -275.25275216 190.4066144 -271 186 C-270.22269531 185.15953125 -269.44539063 184.3190625 -268.64453125 183.453125 C-242.65654021 156.11567379 -204.52055802 140.97914115 -167.15234375 139.78125 C-126.39720827 138.94694248 -88.45620042 151.58501207 -58 179 C-56.71142236 180.0662442 -55.42034716 181.12949018 -54.125 182.1875 C-49.54457811 186.14894596 -45.49974543 190.61465829 -42.2734375 195.74609375 C-36.64593152 204.57050207 -30.16715146 208.07748489 -20.02734375 210.46435547 C-3.40843846 213.85074199 11.21927152 210.332679 25.6875 201.8125 C38.50381126 193.2191172 46.35976295 179.99362422 49.56640625 164.99609375 C51.64884718 150.60661451 48.68037545 137.32858533 41 125 C38.22229505 121.41782312 35.22605658 118.1804586 32 115 C31.43539063 114.42507812 30.87078125 113.85015625 30.2890625 113.2578125 C19.69366993 103.28263803 5.13867884 99.47471568 -9.07055664 99.65063477 C-25.17213079 100.21833697 -39.05076412 107.25902043 -50 119 C-57.80766636 128.28974784 -62.0676019 138.61512647 -63.640625 150.6015625 C-64 153 -64 153 -65 155 C-68.94689081 153.57653118 -72.1852623 151.67320043 -75.6875 149.375 C-100.70715686 133.58801025 -128.94169911 128.10940618 -158 126 C-150.85969231 87.10411336 -128.85847835 50.96302005 -96.125 28.3125 C-67.92780279 9.30488135 -34.38961643 -2.17852774 0 0 Z " fill="#000000" transform="translate(340,32)"/>
</svg>
